<svg fill="none" height="15" viewBox="0 0 15 15" width="15" xmlns="http://www.w3.org/2000/svg"><path d="m7.7066.00274765c-.20269-.00548575-.38863.11198935-.47072.29739935-.08209.185411-.04407.402039.09625.548418 1.03364 1.078295 1.66802 2.540235 1.66802 4.151395 0 3.3137-2.6863 6.00004-6 6.00004-.42445 0-.83808-.044-1.23676-.1275-.1985-.0416-.40245.0408-.51629.2087-.11385.1678-.11503.3878-.003.5568 1.34192 2.025 3.64272 3.362 6.25602 3.362 4.14218 0 7.49998-3.3579 7.49998-7.50004 0-4.07308-3.2467-7.387689-7.2935-7.49721235z" fill="#000"></path></svg>